<?xml version="1.0" standalone="no"?>
<!DOCTYPE svg PUBLIC "-//W3C//DTD SVG 20010904//EN"
 "http://www.w3.org/TR/2001/REC-SVG-20010904/DTD/svg10.dtd">
<svg version="1.0" xmlns="http://www.w3.org/2000/svg"
 width="640.000000pt" height="640.000000pt" viewBox="0 0 640.000000 640.000000"
 preserveAspectRatio="xMidYMid meet">

<g transform="translate(0.000000,640.000000) scale(0.100000,-0.100000)"
fill="#000000" stroke="none">
<path d="M1495 5830 c-500 -313 -912 -573 -916 -577 -5 -5 -137 -780 -294
-1723 -226 -1357 -285 -1729 -283 -1786 l3 -72 1029 -752 c566 -413 1034 -754
1041 -756 6 -3 121 96 256 218 135 123 334 303 442 401 l196 178 373 -288
c205 -159 389 -301 408 -315 31 -23 133 -48 795 -193 574 -125 772 -165 814
-163 l54 3 494 1115 c387 873 493 1122 491 1149 l-3 33 -587 220 -588 220 0
214 0 214 527 642 c289 354 530 648 535 655 10 12 -807 1702 -827 1709 -5 2
-360 -124 -787 -280 l-778 -284 -715 394 c-464 256 -725 394 -743 394 -20 0
-295 -167 -937 -570z m920 453 c-8 -106 -55 -976 -55 -1024 l0 -39 -590 0
-590 0 0 -1183 0 -1182 -572 -547 c-315 -301 -573 -546 -575 -545 -3 4 565
3418 574 3446 6 18 229 163 903 587 492 309 899 563 903 563 5 1 6 -34 2 -76z
m748 -314 c381 -210 693 -382 694 -383 1 0 -73 -83 -164 -184 l-165 -182 -566
0 -567 0 31 563 c35 613 32 567 40 567 3 0 317 -172 697 -381z m2680 -657
c219 -449 399 -820 400 -824 1 -4 -227 -288 -508 -630 l-510 -622 -3 992 -2
992 -815 0 c-448 0 -815 2 -815 6 0 3 70 82 156 177 l155 171 757 278 c416
152 764 277 772 277 10 0 145 -267 413 -817z m-3263 -647 c108 -16 185 -40
268 -85 59 -31 182 -125 182 -138 0 -4 -45 -60 -100 -125 l-100 -117 -63 47
c-74 55 -182 107 -255 122 -224 47 -438 -60 -541 -271 -155 -317 3 -699 324
-783 153 -39 317 -1 479 112 l79 55 101 -102 101 -101 -55 -50 c-132 -120
-265 -186 -435 -215 -451 -77 -849 176 -971 616 -14 49 -18 102 -18 215 -1
178 17 254 91 399 39 75 65 109 147 192 90 90 113 107 206 153 172 85 346 109
560 76z m1100 -680 l0 -675 360 0 360 0 0 -135 0 -135 -525 0 -525 0 0 810 0
810 165 0 165 0 0 -675z m-1747 -2805 l753 0 122 -95 c68 -52 123 -97 123
-100 0 -7 -832 -764 -847 -771 -7 -3 -471 331 -1033 741 l-1020 746 92 89 c50
48 308 295 572 547 l480 460 3 -809 2 -808 753 0z m3872 1303 c303 -113 554
-209 558 -213 7 -6 -930 -2139 -977 -2226 -11 -21 -16 -20 -798 151 -434 95
-794 177 -800 182 -7 6 -242 187 -523 404 l-509 394 1232 3 1232 2 0 761 c0
721 1 761 18 754 9 -4 265 -99 567 -212z m-2745 -658 l0 -105 -730 0 -730 0 0
105 0 105 730 0 730 0 0 -105z"/>
</g>
</svg>
