<?xml version="1.0" encoding="UTF-8"?>
<svg xmlns="http://www.w3.org/2000/svg" xmlns:xlink="http://www.w3.org/1999/xlink" width="512" height="512" viewBox="0 0 512 512" version="1.1">
<g id="surface1">
<path style=" stroke:none;fill-rule:nonzero;fill:rgb(0%,0%,0%);fill-opacity:1;" d="M 405.070312 0.53125 L 106.59375 0.53125 C 47.753906 0.601562 0.0703125 52.480469 0 116.488281 L 0 394.789062 C 0.0703125 458.796875 47.753906 510.671875 106.59375 510.742188 L 405.070312 510.742188 C 463.914062 510.671875 511.59375 458.796875 511.667969 394.789062 L 511.667969 116.488281 C 511.59375 52.480469 463.914062 0.601562 405.070312 0.53125 Z M 106.59375 46.914062 L 405.070312 46.914062 C 431.183594 46.96875 454.648438 64.292969 464.335938 90.671875 L 301.074219 268.300781 C 276.0625 295.402344 235.605469 295.402344 210.59375 268.300781 L 47.332031 90.671875 C 57.019531 64.292969 80.480469 46.96875 106.59375 46.914062 Z M 405.070312 464.363281 L 106.59375 464.363281 C 71.277344 464.363281 42.636719 433.214844 42.636719 394.789062 L 42.636719 151.273438 L 180.449219 301.089844 C 222.117188 346.304688 289.550781 346.304688 331.21875 301.089844 L 469.03125 151.273438 L 469.03125 394.789062 C 469.03125 433.214844 440.390625 464.363281 405.070312 464.363281 Z M 405.070312 464.363281 "/>
</g>
</svg>
