<?xml version="1.0" encoding="UTF-8"?>
<svg xmlns="http://www.w3.org/2000/svg" xmlns:xlink="http://www.w3.org/1999/xlink" width="512" height="512" viewBox="0 0 512 512" version="1.1">
<g id="surface1">
<path style=" stroke:none;fill-rule:nonzero;fill:rgb(8.627451%,8.627451%,7.843137%);fill-opacity:1;" d="M 256 0 C 114.632812 0 0 117.179688 0 261.726562 C 0 377.363281 73.351562 475.472656 175.070312 510.078125 C 187.867188 512.5 192.5625 504.402344 192.5625 497.492188 C 192.5625 491.246094 192.320312 470.632812 192.210938 448.761719 C 120.992188 464.59375 105.96875 417.882812 105.96875 417.882812 C 94.320312 387.628906 77.539062 379.585938 77.539062 379.585938 C 54.3125 363.339844 79.289062 363.675781 79.289062 363.675781 C 105 365.519531 118.53125 390.648438 118.53125 390.648438 C 141.367188 430.65625 178.421875 419.089844 193.03125 412.402344 C 195.328125 395.488281 201.960938 383.9375 209.289062 377.402344 C 152.421875 370.78125 92.648438 348.347656 92.648438 248.058594 C 92.648438 219.480469 102.648438 196.132812 119.023438 177.804688 C 116.367188 171.214844 107.609375 144.59375 121.507812 108.546875 C 121.507812 108.546875 143 101.507812 191.921875 135.367188 C 212.34375 129.570312 234.25 126.660156 256 126.566406 C 277.757812 126.660156 299.671875 129.570312 320.132812 135.367188 C 369 101.507812 390.460938 108.546875 390.460938 108.546875 C 404.398438 144.59375 395.632812 171.214844 392.976562 177.804688 C 409.390625 196.132812 419.320312 219.480469 419.320312 248.058594 C 419.320312 348.585938 359.429688 370.71875 302.429688 377.195312 C 311.609375 385.320312 319.789062 401.246094 319.789062 425.664062 C 319.789062 460.6875 319.492188 488.867188 319.492188 497.492188 C 319.492188 504.457031 324.101562 512.613281 337.078125 510.046875 C 438.742188 475.398438 512 377.324219 512 261.726562 C 512 117.179688 397.382812 0 256 0 Z M 95.882812 372.835938 C 95.320312 374.136719 93.3125 374.527344 91.492188 373.632812 C 89.632812 372.78125 88.59375 371.007812 89.195312 369.703125 C 89.75 368.363281 91.75 367.988281 93.601562 368.890625 C 95.46875 369.746094 96.523438 371.535156 95.882812 372.835938 Z M 108.476562 384.320312 C 107.25 385.480469 104.867188 384.945312 103.25 383.113281 C 101.570312 381.285156 101.257812 378.851562 102.5 377.675781 C 103.757812 376.515625 106.070312 377.0625 107.75 378.882812 C 109.421875 380.726562 109.75 383.15625 108.476562 384.320312 Z M 117.109375 399.015625 C 115.546875 400.136719 112.976562 399.089844 111.390625 396.765625 C 109.828125 394.433594 109.828125 391.644531 111.429688 390.527344 C 113.015625 389.410156 115.546875 390.414062 117.148438 392.722656 C 118.71875 395.085938 118.71875 397.882812 117.109375 399.015625 Z M 131.726562 416.046875 C 130.320312 417.628906 127.328125 417.203125 125.140625 415.039062 C 122.90625 412.929688 122.28125 409.9375 123.6875 408.355469 C 125.109375 406.765625 128.117188 407.210938 130.320312 409.351562 C 132.539062 411.460938 133.21875 414.480469 131.726562 416.046875 Z M 150.601562 421.789062 C 149.984375 423.84375 147.109375 424.769531 144.210938 423.898438 C 141.3125 423.003906 139.414062 420.597656 140 418.53125 C 140.601562 416.46875 143.492188 415.496094 146.414062 416.429688 C 149.304688 417.324219 151.203125 419.703125 150.601562 421.789062 Z M 172.09375 424.226562 C 172.164062 426.382812 169.710938 428.179688 166.664062 428.210938 C 163.601562 428.28125 161.125 426.535156 161.09375 424.417969 C 161.09375 422.238281 163.5 420.464844 166.554688 420.40625 C 169.601562 420.351562 172.09375 422.085938 172.09375 424.226562 Z M 193.203125 423.402344 C 193.570312 425.503906 191.453125 427.667969 188.429688 428.242188 C 185.460938 428.800781 182.710938 427.5 182.328125 425.40625 C 181.960938 423.25 184.117188 421.085938 187.085938 420.527344 C 190.109375 419.992188 192.820312 421.261719 193.203125 423.402344 Z M 193.203125 423.402344 "/>
</g>
</svg>
