<?xml version="1.0" encoding="UTF-8"?>
<svg xmlns="http://www.w3.org/2000/svg" xmlns:xlink="http://www.w3.org/1999/xlink" width="512" height="512" viewBox="0 0 512 512" version="1.1">
<g id="surface1">
<path style=" stroke:none;fill-rule:nonzero;fill:rgb(0%,0%,0%);fill-opacity:1;" d="M 256 42.667969 C 138.132812 42.667969 42.667969 138.132812 42.667969 256 C 42.617188 347.847656 101.394531 429.40625 188.542969 458.410156 C 199.210938 460.265625 203.199219 453.867188 203.199219 448.257812 C 203.199219 443.199219 202.921875 426.410156 202.921875 408.535156 C 149.332031 418.410156 135.464844 395.476562 131.199219 383.464844 C 128.789062 377.324219 118.398438 358.398438 109.332031 353.324219 C 101.867188 349.332031 91.199219 339.457031 109.054688 339.199219 C 125.867188 338.921875 137.855469 354.667969 141.867188 361.066406 C 161.066406 393.324219 191.742188 384.257812 203.988281 378.667969 C 205.867188 364.800781 211.457031 355.476562 217.601562 350.144531 C 170.132812 344.8125 120.535156 326.398438 120.535156 244.800781 C 120.535156 221.589844 128.789062 202.410156 142.398438 187.457031 C 140.265625 182.121094 132.800781 160.257812 144.535156 130.921875 C 144.535156 130.921875 162.390625 125.332031 203.199219 152.8125 C 220.566406 147.992188 238.511719 145.566406 256.535156 145.601562 C 274.667969 145.601562 292.800781 147.988281 309.867188 152.789062 C 350.65625 125.054688 368.535156 130.945312 368.535156 130.945312 C 380.265625 160.277344 372.800781 182.144531 370.667969 187.476562 C 384.257812 202.410156 392.535156 221.332031 392.535156 244.800781 C 392.535156 326.675781 342.675781 344.8125 295.210938 350.144531 C 302.933594 356.800781 309.609375 369.601562 309.609375 389.609375 C 309.609375 418.132812 309.332031 441.066406 309.332031 448.277344 C 309.332031 453.867188 313.34375 460.523438 324.011719 458.390625 C 410.84375 429.074219 469.308594 347.648438 469.332031 256 C 469.332031 138.132812 373.867188 42.667969 256 42.667969 Z M 256 42.667969 "/>
</g>
</svg>
