<?xml version="1.0" encoding="UTF-8"?>
<svg xmlns="http://www.w3.org/2000/svg" xmlns:xlink="http://www.w3.org/1999/xlink" width="512"
    height="512" viewBox="0 0 512 512" version="1.1">
    <g id="surface1">
        <path style=" stroke:none;fill-rule:nonzero;fill:rgb(0%,0%,0%);fill-opacity:1;"
            d="M 256 85.332031 C 350.257812 85.332031 426.667969 161.742188 426.667969 256 C 426.667969 331.777344 377.257812 395.980469 308.914062 418.261719 C 308.933594 418.199219 308.964844 418.105469 308.964844 418.105469 C 308.964844 418.105469 297.445312 412.707031 297.683594 403.070312 C 297.957031 392.46875 297.683594 367.722656 297.683594 358.640625 C 297.683594 343.046875 287.816406 331.996094 287.816406 331.996094 C 287.816406 331.996094 365.210938 332.863281 365.210938 250.28125 C 365.210938 218.417969 348.558594 201.839844 348.558594 201.839844 C 348.558594 201.839844 357.304688 167.820312 345.527344 153.402344 C 332.332031 151.980469 308.691406 166.015625 298.59375 172.578125 C 298.59375 172.578125 282.59375 166.023438 255.992188 166.023438 C 229.382812 166.023438 213.390625 172.578125 213.390625 172.578125 C 203.300781 166.023438 179.65625 151.980469 166.457031 153.402344 C 154.679688 167.828125 163.425781 201.839844 163.425781 201.839844 C 163.425781 201.839844 146.773438 218.425781 146.773438 250.28125 C 146.773438 332.863281 224.171875 331.996094 224.171875 331.996094 C 224.171875 331.996094 216.371094 340.808594 214.671875 353.761719 C 209.265625 355.597656 201.324219 357.859375 194.902344 357.859375 C 178.105469 357.859375 165.328125 341.53125 160.648438 333.980469 C 156.03125 326.527344 146.566406 320.277344 137.742188 320.277344 C 131.933594 320.277344 129.09375 323.1875 129.09375 326.507812 C 129.09375 329.828125 137.246094 332.144531 142.621094 338.304688 C 153.957031 351.289062 153.75 380.496094 194.140625 380.496094 C 198.527344 380.496094 207.480469 379.414062 214.214844 378.511719 C 214.171875 387.703125 214.164062 397.40625 214.308594 403.070312 C 214.550781 412.707031 203.03125 418.105469 203.03125 418.105469 C 203.03125 418.105469 203.058594 418.199219 203.078125 418.261719 C 134.742188 395.980469 85.332031 331.777344 85.332031 256 C 85.332031 161.742188 161.742188 85.332031 256 85.332031 Z M 256 85.332031 " />
    </g>
</svg>