<?xml version="1.0" encoding="UTF-8"?>
<svg xmlns="http://www.w3.org/2000/svg" xmlns:xlink="http://www.w3.org/1999/xlink" width="512" height="512" viewBox="0 0 512 512" version="1.1">
<g id="surface1">
<path style="fill-rule:nonzero;fill:rgb(0%,0%,0%);fill-opacity:1;stroke-width:2;stroke-linecap:butt;stroke-linejoin:miter;stroke:rgb(0%,0%,0%);stroke-opacity:1;stroke-miterlimit:4;" d="M 13.000221 -0.999725 L 55.999779 -0.999725 C 63.731857 -0.999725 69.999725 5.268143 69.999725 13.000221 L 69.999725 55.999779 C 69.999725 63.731857 63.731857 69.999725 55.999779 69.999725 L 13.000221 69.999725 C 5.268143 69.999725 -0.999725 63.731857 -0.999725 55.999779 L -0.999725 13.000221 C -0.999725 5.268143 5.268143 -0.999725 13.000221 -0.999725 Z M 13.000221 -0.999725 " transform="matrix(7.013699,0,0,7.013699,14.027397,14.027397)"/>
<path style=" stroke:none;fill-rule:nonzero;fill:rgb(100%,100%,100%);fill-opacity:1;" d="M 422.972656 164.316406 C 406.0625 135.34375 383.125 112.40625 354.15625 95.5 C 325.179688 78.589844 293.546875 70.136719 259.238281 70.136719 C 224.929688 70.136719 193.289062 78.59375 164.316406 95.5 C 135.34375 112.40625 112.410156 135.34375 95.5 164.316406 C 78.589844 193.289062 70.136719 224.929688 70.136719 259.230469 C 70.136719 300.4375 82.160156 337.492188 106.207031 370.398438 C 130.257812 403.3125 161.320312 426.085938 199.402344 438.726562 C 203.835938 439.546875 207.117188 438.96875 209.25 437.003906 C 211.382812 435.035156 212.449219 432.570312 212.449219 429.621094 C 212.449219 429.128906 212.410156 424.699219 212.328125 416.324219 C 212.242188 407.953125 212.203125 400.648438 212.203125 394.414062 L 206.539062 395.394531 C 202.929688 396.054688 198.371094 396.335938 192.875 396.257812 C 187.375 396.179688 181.667969 395.605469 175.761719 394.53125 C 169.851562 393.472656 164.351562 391.007812 159.261719 387.152344 C 154.175781 383.292969 150.566406 378.246094 148.433594 372.011719 L 145.96875 366.34375 C 144.328125 362.574219 141.746094 358.382812 138.214844 353.789062 C 134.683594 349.191406 131.117188 346.074219 127.503906 344.433594 L 125.78125 343.199219 C 124.632812 342.378906 123.566406 341.390625 122.582031 340.242188 C 121.59375 339.09375 120.859375 337.945312 120.367188 336.796875 C 119.871094 335.644531 120.28125 334.699219 121.597656 333.960938 C 122.910156 333.21875 125.289062 332.859375 128.738281 332.859375 L 133.660156 333.59375 C 136.941406 334.253906 141.003906 336.21875 145.847656 339.503906 C 150.691406 342.785156 154.667969 347.050781 157.789062 352.304688 C 161.566406 359.035156 166.117188 364.164062 171.453125 367.695312 C 176.789062 371.222656 182.164062 372.984375 187.582031 372.984375 C 192.996094 372.984375 197.675781 372.574219 201.617188 371.757812 C 205.550781 370.9375 209.246094 369.703125 212.695312 368.0625 C 214.171875 357.0625 218.195312 348.609375 224.757812 342.699219 C 215.402344 341.71875 206.992188 340.234375 199.519531 338.265625 C 192.054688 336.296875 184.339844 333.097656 176.378906 328.660156 C 168.414062 324.230469 161.808594 318.730469 156.554688 312.164062 C 151.304688 305.597656 146.992188 296.980469 143.632812 286.3125 C 140.265625 275.640625 138.585938 263.332031 138.585938 249.378906 C 138.585938 229.511719 145.070312 212.609375 158.039062 198.65625 C 151.960938 183.71875 152.535156 166.976562 159.757812 148.429688 C 164.519531 146.949219 171.578125 148.058594 180.933594 151.75 C 190.292969 155.445312 197.144531 158.609375 201.496094 161.234375 C 205.847656 163.855469 209.332031 166.078125 211.960938 167.878906 C 227.230469 163.613281 242.984375 161.480469 259.234375 161.480469 C 275.484375 161.480469 291.246094 163.613281 306.515625 167.878906 L 315.871094 161.972656 C 322.269531 158.03125 329.824219 154.421875 338.519531 151.136719 C 347.21875 147.855469 353.871094 146.953125 358.46875 148.429688 C 365.855469 166.980469 366.511719 183.722656 360.433594 198.65625 C 373.402344 212.609375 379.890625 229.519531 379.890625 249.382812 C 379.890625 263.332031 378.203125 275.683594 374.84375 286.433594 C 371.480469 297.191406 367.132812 305.800781 361.796875 312.289062 C 356.460938 318.773438 349.808594 324.234375 341.851562 328.664062 C 333.890625 333.09375 326.171875 336.296875 318.703125 338.265625 C 311.234375 340.238281 302.824219 341.71875 293.46875 342.703125 C 302 350.089844 306.265625 361.742188 306.265625 377.664062 L 306.265625 429.613281 C 306.265625 432.566406 307.292969 435.027344 309.347656 436.996094 C 311.398438 438.964844 314.640625 439.542969 319.070312 438.71875 C 357.15625 426.082031 388.222656 403.304688 412.269531 370.394531 C 436.3125 337.484375 448.339844 300.429688 448.339844 259.226562 C 448.332031 224.925781 439.871094 193.289062 422.972656 164.316406 Z M 422.972656 164.316406 "/>
</g>
</svg>
