<?xml version="1.0" encoding="UTF-8"?>
<!DOCTYPE svg PUBLIC "-//W3C//DTD SVG 1.1//EN" "http://www.w3.org/Graphics/SVG/1.1/DTD/svg11.dtd">
<svg xmlns="http://www.w3.org/2000/svg" version="1.1" width="1024px" height="1024px" style="shape-rendering:geometricPrecision; text-rendering:geometricPrecision; image-rendering:optimizeQuality; fill-rule:evenodd; clip-rule:evenodd" xmlns:xlink="http://www.w3.org/1999/xlink">
<g><path style="opacity:1" fill="#000000" d="M -0.5,-0.5 C 340.833,-0.5 682.167,-0.5 1023.5,-0.5C 1023.5,340.833 1023.5,682.167 1023.5,1023.5C 682.167,1023.5 340.833,1023.5 -0.5,1023.5C -0.5,682.167 -0.5,340.833 -0.5,-0.5 Z"/></g>
<g><path style="opacity:1" fill="#f8f9f8" d="M 0.5,0.5 C 341.167,0.5 681.833,0.5 1022.5,0.5C 1022.5,341.167 1022.5,681.833 1022.5,1022.5C 681.833,1022.5 341.167,1022.5 0.5,1022.5C 0.5,681.833 0.5,341.167 0.5,0.5 Z"/></g>
<g><path style="opacity:1" fill="#fefefe" d="M 1.5,1.5 C 341.5,1.5 681.5,1.5 1021.5,1.5C 1021.5,341.5 1021.5,681.5 1021.5,1021.5C 681.5,1021.5 341.5,1021.5 1.5,1021.5C 1.5,681.5 1.5,341.5 1.5,1.5 Z"/></g>
<g><path style="opacity:1" fill="#101010" d="M 550.5,850.5 C 550.5,849.5 550.5,848.5 550.5,847.5C 552.525,837.256 554.025,826.923 555,816.5C 555.5,701.167 555.667,585.834 555.5,470.5C 524.167,470.5 492.833,470.5 461.5,470.5C 461.667,582.5 461.5,694.5 461,806.5C 460.417,810.832 459.917,815.165 459.5,819.5C 458.549,818.081 458.216,816.415 458.5,814.5C 459.49,699.184 459.824,583.851 459.5,468.5C 492.167,468.5 524.833,468.5 557.5,468.5C 557.667,584.5 557.5,700.5 557,816.5C 556.385,828.264 554.218,839.597 550.5,850.5 Z"/></g>
<g><path style="opacity:1" fill="#fefefe" d="M 550.5,847.5 C 536.115,899.043 502.448,929.543 449.5,939C 419.173,944.682 389.173,943.349 359.5,935C 318.547,921.38 288.88,895.047 270.5,856C 295.638,840.261 320.971,824.761 346.5,809.5C 354.15,822.652 363.15,834.819 373.5,846C 395.575,861.158 418.575,862.491 442.5,850C 452.18,842.146 457.847,831.98 459.5,819.5C 459.917,815.165 460.417,810.832 461,806.5C 461.5,694.5 461.667,582.5 461.5,470.5C 492.833,470.5 524.167,470.5 555.5,470.5C 555.667,585.834 555.5,701.167 555,816.5C 554.025,826.923 552.525,837.256 550.5,847.5 Z"/></g>
<g><path style="opacity:1" fill="#1c1c1c" d="M 758.5,463.5 C 790.571,460.77 821.571,465.27 851.5,477C 880.125,491.292 901.792,512.625 916.5,541C 891.367,557.738 866.033,574.238 840.5,590.5C 834.498,580.007 827.164,570.507 818.5,562C 800.904,549.281 781.571,545.948 760.5,552C 741.086,559.987 732.252,574.487 734,595.5C 736.64,610.953 744.806,622.453 758.5,630C 783.206,643.014 808.54,654.681 834.5,665C 859.177,675.992 881.843,689.992 902.5,707C 935.548,739.132 949.382,778.299 944,824.5C 938.236,873.209 913.069,907.709 868.5,928C 815.352,948.523 761.686,949.856 707.5,932C 662.805,916.467 629.805,887.634 608.5,845.5C 611.361,842.486 614.694,839.986 618.5,838C 641.5,824.833 664.5,811.667 687.5,798.5C 697.408,814.473 709.741,828.307 724.5,840C 750.361,856.699 778.361,861.366 808.5,854C 823.523,849.631 835.023,840.798 843,827.5C 850.182,806.409 845.349,788.575 828.5,774C 818.481,766.987 807.814,760.987 796.5,756C 772.264,745.883 748.264,735.216 724.5,724C 705.151,714.077 687.651,701.577 672,686.5C 642.34,651.486 631.34,611.153 639,565.5C 651.435,515.731 682.268,483.564 731.5,469C 740.664,467.201 749.664,465.368 758.5,463.5 Z"/></g>
<g><path style="opacity:1" fill="#fefefe" d="M 759.5,465.5 C 784.935,463.938 809.935,466.438 834.5,473C 861.699,481.844 883.866,497.678 901,520.5C 905,526.5 909,532.5 913,538.5C 913.684,539.784 913.517,540.951 912.5,542C 888.699,556.969 865.033,572.136 841.5,587.5C 836.833,580.182 831.667,573.182 826,566.5C 808.032,549.564 786.865,543.731 762.5,549C 736.722,559.055 727.222,577.555 734,604.5C 738.112,616.231 745.612,625.064 756.5,631C 780.201,643.684 804.535,655.017 829.5,665C 854.823,675.982 878.156,689.982 899.5,707C 933.258,739.262 947.425,778.762 942,825.5C 935.916,873.923 910.416,907.756 865.5,927C 804.969,949.436 745.302,947.436 686.5,921C 653.36,903.693 628.026,878.526 610.5,845.5C 635.575,830.434 660.908,815.767 686.5,801.5C 692.413,809.642 698.58,817.642 705,825.5C 737.397,858.472 775.564,867.305 819.5,852C 842.613,840.941 851.78,822.774 847,797.5C 841.374,782.207 831.208,771.041 816.5,764C 793.189,752.511 769.522,741.844 745.5,732C 721.982,721.442 700.315,708.109 680.5,692C 657.035,669.903 643.535,642.737 640,610.5C 633.802,556.408 653.302,514.575 698.5,485C 717.76,474.745 738.093,468.245 759.5,465.5 Z"/></g>
<g><path style="opacity:1" fill="#1d1d1d" d="M 458.5,814.5 C 458.216,816.415 458.549,818.081 459.5,819.5C 457.847,831.98 452.18,842.146 442.5,850C 418.575,862.491 395.575,861.158 373.5,846C 363.15,834.819 354.15,822.652 346.5,809.5C 320.971,824.761 295.638,840.261 270.5,856C 288.88,895.047 318.547,921.38 359.5,935C 389.173,943.349 419.173,944.682 449.5,939C 502.448,929.543 536.115,899.043 550.5,847.5C 550.5,848.5 550.5,849.5 550.5,850.5C 537.836,897.995 507.503,927.495 459.5,939C 414.269,949.864 370.936,944.864 329.5,924C 302.739,908.239 282.572,886.406 269,858.5C 268.202,856.741 268.369,855.074 269.5,853.5C 295.417,837.959 321.25,822.292 347,806.5C 353.085,816.338 359.418,826.004 366,835.5C 385.769,856.995 409.269,862.162 436.5,851C 444.5,846.539 450.334,840.039 454,831.5C 456.269,825.889 457.769,820.222 458.5,814.5 Z"/></g>
</svg>
