<?xml version="1.0" encoding="UTF-8"?>
<svg xmlns="http://www.w3.org/2000/svg" xmlns:xlink="http://www.w3.org/1999/xlink" width="512" height="512" viewBox="0 0 512 512" version="1.1">
<g id="surface1">
<path style=" stroke:none;fill-rule:nonzero;fill:rgb(3.921569%,40%,76.078431%);fill-opacity:1;" d="M 436.246094 436.253906 L 360.382812 436.253906 L 360.382812 317.449219 C 360.382812 289.117188 359.878906 252.648438 320.925781 252.648438 C 281.414062 252.648438 275.371094 283.515625 275.371094 315.386719 L 275.371094 436.246094 L 199.507812 436.246094 L 199.507812 191.933594 L 272.335938 191.933594 L 272.335938 225.320312 L 273.355469 225.320312 C 288.207031 199.929688 315.816406 184.765625 345.210938 185.855469 C 422.101562 185.855469 436.277344 236.433594 436.277344 302.226562 Z M 113.910156 158.535156 C 89.597656 158.542969 69.882812 138.835938 69.878906 114.519531 C 69.875 90.207031 89.582031 70.492188 113.894531 70.488281 C 138.207031 70.484375 157.921875 90.191406 157.925781 114.503906 C 157.929688 126.179688 153.292969 137.378906 145.039062 145.636719 C 136.78125 153.894531 125.585938 158.535156 113.910156 158.535156 M 151.839844 436.253906 L 75.898438 436.253906 L 75.898438 191.933594 L 151.839844 191.933594 Z M 474.066406 0.0351562 L 37.777344 0.0351562 C 17.160156 -0.195312 0.25 16.320312 -0.00390625 36.941406 L -0.00390625 475.046875 C 0.242188 495.679688 17.148438 512.210938 37.777344 511.996094 L 474.066406 511.996094 C 494.738281 512.25 511.710938 495.71875 511.996094 475.046875 L 511.996094 36.910156 C 511.703125 16.25 494.726562 -0.269531 474.066406 0 "/>
</g>
</svg>
