<?xml version="1.0" encoding="UTF-8"?>
<svg xmlns="http://www.w3.org/2000/svg" xmlns:xlink="http://www.w3.org/1999/xlink" width="512" height="512" viewBox="0 0 512 512" version="1.1">
<g id="surface1">
<path style=" stroke:none;fill-rule:nonzero;fill:rgb(0%,0%,0%);fill-opacity:1;" d="M 276.265625 252.15625 C 269.898438 254.3125 263.054688 255.476562 256 255.476562 C 248.945312 255.476562 242.101562 254.3125 235.734375 252.15625 C 189.476562 259.789062 165.265625 293.789062 165.265625 335.054688 L 346.734375 335.054688 C 346.734375 293.789062 322.523438 259.789062 276.265625 252.15625 Z M 276.265625 252.15625 "/>
<path style=" stroke:none;fill-rule:nonzero;fill:rgb(0%,0%,0%);fill-opacity:1;" d="M 256 240.789062 C 283.421875 240.789062 305.632812 218.523438 305.632812 191.101562 L 305.632812 177.054688 C 305.632812 149.632812 283.421875 127.367188 256 127.367188 C 228.578125 127.367188 206.367188 149.632812 206.367188 177.054688 L 206.367188 191.101562 C 206.367188 218.523438 228.578125 240.789062 256 240.789062 Z M 256 240.789062 "/>
<path style=" stroke:none;fill-rule:nonzero;fill:rgb(0%,0%,0%);fill-opacity:1;" d="M 378.421875 0 L 133.578125 0 C 86.210938 0 47.6875 38.523438 47.6875 85.898438 L 47.6875 426.101562 C 47.6875 473.476562 86.210938 512 133.578125 512 L 352.476562 512 L 464.3125 400.15625 L 464.3125 85.898438 C 464.3125 38.523438 425.789062 0 378.421875 0 Z M 432.476562 387 L 384.367188 387 C 359.476562 387 339.265625 407.15625 339.265625 432.054688 L 339.265625 480.210938 L 133.578125 480.210938 C 103.734375 480.210938 79.523438 456 79.523438 426.101562 L 79.523438 85.898438 C 79.523438 56 103.734375 31.789062 133.578125 31.789062 L 378.421875 31.789062 C 408.265625 31.789062 432.476562 56 432.476562 85.898438 Z M 432.476562 387 "/>
</g>
</svg>
