<?xml version="1.0" encoding="UTF-8"?>
<!DOCTYPE svg PUBLIC "-//W3C//DTD SVG 1.1//EN" "http://www.w3.org/Graphics/SVG/1.1/DTD/svg11.dtd">
<svg xmlns="http://www.w3.org/2000/svg" version="1.1" width="512px" height="512px"
    style="shape-rendering:geometricPrecision; text-rendering:geometricPrecision; image-rendering:optimizeQuality; fill-rule:evenodd; clip-rule:evenodd"
    xmlns:xlink="http://www.w3.org/1999/xlink">
    <g>
        <path style="opacity:0.911" fill="#000000"
            d="M 28.5,28.5 C 179.833,28.5 331.167,28.5 482.5,28.5C 482.5,179.833 482.5,331.167 482.5,482.5C 331.167,482.5 179.833,482.5 28.5,482.5C 28.5,331.167 28.5,179.833 28.5,28.5 Z" />
    </g>
    <g>
        <path style="opacity:1" fill="#6c620a"
            d="M 33.5,33.5 C 181.5,33.5 329.5,33.5 477.5,33.5C 477.5,181.5 477.5,329.5 477.5,477.5C 329.5,477.5 181.5,477.5 33.5,477.5C 33.5,329.5 33.5,181.5 33.5,33.5 Z" />
    </g>
    <g>
        <path style="opacity:1" fill="#f4dd18"
            d="M 34.5,34.5 C 181.833,34.5 329.167,34.5 476.5,34.5C 476.5,181.833 476.5,329.167 476.5,476.5C 329.167,476.5 181.833,476.5 34.5,476.5C 34.5,329.167 34.5,181.833 34.5,34.5 Z" />
    </g>
    <g>
        <path style="opacity:1" fill="#010100"
            d="M 446.5,375.5 C 446.518,383.851 446.185,392.184 445.5,400.5C 439.119,422.048 425.119,436.215 403.5,443C 399.56,444.156 395.56,444.99 391.5,445.5C 379.486,446.653 367.486,446.653 355.5,445.5C 328.436,440.14 308.436,425.307 295.5,401C 307.684,393.329 320.017,385.829 332.5,378.5C 335.895,384.071 339.895,389.238 344.5,394C 359.294,405.592 375.294,407.592 392.5,400C 399.085,394.643 401.251,387.809 399,379.5C 396.5,375 393,371.5 388.5,369C 371.626,361.378 354.96,353.378 338.5,345C 313.71,328.237 304.21,305.07 310,275.5C 318.068,252.099 334.235,237.932 358.5,233C 386.25,227.916 409.417,235.749 428,256.5C 430,259.833 432,263.167 434,266.5C 434.781,267.944 434.614,269.277 433.5,270.5C 422.5,277.667 411.5,284.833 400.5,292C 399.365,292.749 398.365,292.583 397.5,291.5C 390.219,276.528 378.552,271.361 362.5,276C 354.044,281.832 352.211,289.332 357,298.5C 359.537,301.372 362.37,303.872 365.5,306C 379.5,312.667 393.5,319.333 407.5,326C 425.908,334.073 438.408,347.573 445,366.5C 445.696,369.478 446.196,372.478 446.5,375.5 Z" />
    </g>
    <g>
        <path style="opacity:1" fill="#040300"
            d="M 225.5,445.5 C 216.851,446.203 208.185,446.536 199.5,446.5C 174.654,442.23 156.987,428.563 146.5,405.5C 158.592,397.257 171.092,389.591 184,382.5C 187.794,386.722 191.127,391.388 194,396.5C 204.196,406.464 215.029,407.131 226.5,398.5C 227.333,396.833 228.167,395.167 229,393.5C 230.151,340.641 230.985,287.808 231.5,235C 247.074,234.176 262.574,234.343 278,235.5C 278.667,284.5 278.667,333.5 278,382.5C 278.135,401.671 271.635,418.171 258.5,432C 248.89,439.708 237.89,444.208 225.5,445.5 Z" />
    </g>
    <g>
        <path style="opacity:1" fill="#6a610c"
            d="M 446.5,375.5 C 447.165,378.482 447.498,381.648 447.5,385C 447.621,390.411 446.954,395.577 445.5,400.5C 446.185,392.184 446.518,383.851 446.5,375.5 Z" />
    </g>
    <g>
        <path style="opacity:1" fill="#83770d"
            d="M 225.5,445.5 C 220.234,446.918 214.734,447.585 209,447.5C 205.648,447.498 202.482,447.165 199.5,446.5C 208.185,446.536 216.851,446.203 225.5,445.5 Z" />
    </g>
    <g>
        <path style="opacity:1" fill="#73680c"
            d="M 355.5,445.5 C 367.486,446.653 379.486,446.653 391.5,445.5C 384.891,446.953 378.058,447.619 371,447.5C 366.833,447.333 362.667,447.167 358.5,447C 357.263,446.768 356.263,446.268 355.5,445.5 Z" />
    </g>
</svg>